<svg width="15" height="15" viewBox="0 0 15 15" fill="none" xmlns="http://www.w3.org/2000/svg">
    <defs>
        <linearGradient id="paint0_linear_811_7263" x1="7.50052" y1="0" x2="7.50052" y2="15" gradientUnits="userSpaceOnUse">
            <stop stop-color="#EA1A7F"/>
            <stop offset="1" stop-color="#EA1A1A" stop-opacity="0.86"/>
        </linearGradient>
        <linearGradient id="paint1_linear_811_7263" x1="7.5006" y1="4.03857" x2="7.5006" y2="10.9617" gradientUnits="userSpaceOnUse">
            <stop stop-color="#FFF0F6"/>
            <stop offset="1" stop-color="#FFF0F6" stop-opacity="0.67"/>
        </linearGradient>
        <linearGradient id="paint2_linear_811_7263" x1="7.5006" y1="4.03857" x2="7.5006" y2="10.9617" gradientUnits="userSpaceOnUse">
            <stop stop-color="#FFF0F6"/>
            <stop offset="1" stop-color="#FFF0F6" stop-opacity="0.67"/>
        </linearGradient>
        <linearGradient id="paint3_linear_811_7263" x1="7.5006" y1="4.03857" x2="7.5006" y2="10.9617" gradientUnits="userSpaceOnUse">
            <stop stop-color="#FFF0F6"/>
            <stop offset="1" stop-color="#FFF0F6" stop-opacity="0.67"/>
        </linearGradient>
    </defs>
    <path fill-rule="evenodd" clip-rule="evenodd" d="M9.19468 0.657195C8.24511 -0.219065 6.75592 -0.219065 5.80635 0.657195C5.51975 0.921672 5.1182 1.04964 4.71564 0.996822C3.42999 0.828147 2.20453 1.66409 1.96539 2.93892C1.89701 3.30348 1.6581 3.62674 1.30481 3.80972C0.146428 4.40968 -0.335543 5.80104 0.248962 6.96912C0.417118 7.30516 0.417118 7.69484 0.248962 8.03088C-0.335543 9.19896 0.146428 10.5903 1.30481 11.1903C1.6581 11.3733 1.89701 11.6965 1.96539 12.0611C2.20453 13.3359 3.42999 14.1719 4.71564 14.0032C5.1182 13.9504 5.51975 14.0783 5.80635 14.3428C6.75592 15.2191 8.24511 15.2191 9.19468 14.3428C9.48129 14.0783 9.88283 13.9504 10.2854 14.0032C11.571 14.1719 12.7965 13.3359 13.0356 12.0611C13.104 11.6965 13.3429 11.3733 13.6962 11.1903C14.8546 10.5903 15.3366 9.19896 14.7521 8.03088C14.5839 7.69484 14.5839 7.30516 14.7521 6.96912C15.3366 5.80104 14.8546 4.40968 13.6962 3.80972C13.3429 3.62674 13.104 3.30348 13.0356 2.93892C12.7965 1.66409 11.571 0.828147 10.2854 0.996822C9.88283 1.04964 9.48129 0.921672 9.19468 0.657195Z" fill="url(#paint0_linear_811_7263)"/>
<path d="M9.80829 8.65396C9.17104 8.65396 8.65445 9.17055 8.65445 9.80781C8.65445 10.4451 9.17104 10.9617 9.80829 10.9617C10.4455 10.9617 10.9621 10.4451 10.9621 9.80781C10.9621 9.17055 10.4455 8.65396 9.80829 8.65396Z" fill="url(#paint1_linear_811_7263)"/>
<path d="M10.7685 5.02344C10.9938 4.79814 10.9938 4.43285 10.7685 4.20755C10.5432 3.98225 10.1779 3.98225 9.95258 4.20755L4.20804 9.95209C3.98274 10.1774 3.98274 10.5427 4.20804 10.768C4.43334 10.9933 4.79863 10.9933 5.02393 10.768L10.7685 5.02344Z" fill="url(#paint2_linear_811_7263)"/>
<path d="M5.19291 4.03857C4.55566 4.03857 4.03906 4.55517 4.03906 5.19242C4.03906 5.82967 4.55566 6.34627 5.19291 6.34627C5.83016 6.34627 6.34676 5.82967 6.34676 5.19242C6.34676 4.55517 5.83016 4.03857 5.19291 4.03857Z" fill="url(#paint3_linear_811_7263)"/>
</svg>
