<svg width="21" height="15" viewBox="0 0 21 15" fill="none" xmlns="http://www.w3.org/2000/svg">
    <defs>
        <linearGradient id="paint0_linear_811_7242" x1="4.5" y1="5.02914e-07" x2="16.5" y2="15.75" gradientUnits="userSpaceOnUse">
            <stop stop-color="#23D207"/>
            <stop offset="1" stop-color="#03B45F"/>
        </linearGradient>
        <linearGradient id="paint1_linear_811_7242" x1="10.5" y1="4.5" x2="10.5" y2="10.5" gradientUnits="userSpaceOnUse">
            <stop stop-color="#58BF6F"/>
            <stop offset="1" stop-color="#02621D" stop-opacity="0.89"/>
        </linearGradient>
        <linearGradient id="paint2_linear_811_7242" x1="10.4998" y1="0.0136719" x2="10.4998" y2="14.9889" gradientUnits="userSpaceOnUse">
            <stop stop-color="#58BF6F"/>
            <stop offset="1" stop-color="#02621D" stop-opacity="0.89"/>
        </linearGradient>
    </defs>
<path d="M10.5002 14.2457C5.37983 15.6626 2.39953 14.7562 1.16825 14.1673C0.708569 13.9475 0.412112 13.5253 0.32874 13.0226C0.183983 12.1499 0 10.381 0 7.02781C0 4.80988 0.0804937 3.28509 0.176888 2.25429C0.2702 1.25643 1.35792 0.821784 2.32131 1.09799C3.90744 1.55273 6.57502 1.83183 10.5002 0.745687C15.6236 -0.672003 18.6041 0.259616 19.834 0.860976C20.2926 1.08522 20.5867 1.51054 20.6699 2.01421C20.8149 2.89107 21 4.66509 21 8.00718C21 10.194 20.9208 11.7094 20.8254 12.7415C20.732 13.7511 19.6225 14.1931 18.6488 13.9104C17.0592 13.4487 14.4007 13.1664 10.5002 14.2457Z" fill="url(#paint0_linear_811_7242)"/>
<path d="M13.5 7.5C13.5 9.15686 12.1569 10.5 10.5 10.5C8.84315 10.5 7.5 9.15686 7.5 7.5C7.5 5.84315 8.84315 4.5 10.5 4.5C12.1569 4.5 13.5 5.84315 13.5 7.5Z" fill="url(#paint1_linear_811_7242)"/>
<path fill-rule="evenodd" clip-rule="evenodd" d="M20.9342 4.89033C20.6344 4.9621 20.3214 5.0001 19.9996 5.0001C17.7905 5.0001 15.9996 3.20924 15.9996 1.0001C15.9996 0.659685 16.0421 0.329201 16.1222 0.0136719C17.9386 0.0952233 19.1536 0.528638 19.8336 0.861107C20.2922 1.08536 20.5863 1.51067 20.6695 2.01434C20.7605 2.56453 20.8673 3.46795 20.9342 4.89033ZM20.9899 9.287C20.5293 9.10198 20.0263 9.00016 19.4996 9.00016C17.2905 9.00016 15.4996 10.791 15.4996 13.0002C15.4996 13.1695 15.5101 13.3364 15.5306 13.5001C16.8388 13.502 17.8713 13.6848 18.6484 13.9105C19.6221 14.1933 20.7316 13.7512 20.825 12.7416C20.9005 11.9243 20.9659 10.8039 20.9899 9.287ZM4.87647 14.9889C4.95687 14.6727 4.9996 14.3414 4.9996 14.0002C4.9996 11.791 3.20874 10.0002 0.999602 10.0002C0.676976 10.0002 0.363272 10.0384 0.0627635 10.1105C0.129204 11.5574 0.236643 12.4699 0.328341 13.0228C0.411713 13.5255 0.70817 13.9476 1.16785 14.1675C1.84815 14.4928 3.06237 14.9151 4.87647 14.9889ZM0.00976562 5.71344C0.47022 5.89835 0.973028 6.0001 1.4996 6.0001C3.70874 6.0001 5.4996 4.20924 5.4996 2.0001C5.4996 1.83077 5.48908 1.66389 5.46865 1.50009C4.1436 1.50309 3.10135 1.32187 2.32091 1.09812C1.35752 0.821916 0.269802 1.25656 0.176489 2.25442C0.100455 3.0675 0.0343138 4.18793 0.00976562 5.71344Z" fill="url(#paint2_linear_811_7242)"/>
</svg>
