<svg width="41" height="34" viewBox="0 0 41 34" fill="none" xmlns="http://www.w3.org/2000/svg">
<path d="M6.84963 25.7072L6.25999 27.0865L6.84963 25.7072ZM2.598 21.3191L1.20593 21.8778L2.598 21.3191ZM32.8259 21.3191L34.218 21.8778V21.8778L32.8259 21.3191ZM28.5743 25.7072L27.9847 24.328H27.9847L28.5743 25.7072ZM28.5743 2.61719L27.9847 3.99644L27.9847 3.99644L28.5743 2.61719ZM32.8259 7.00529L34.218 6.4466V6.4466L32.8259 7.00529ZM6.84963 2.61719L6.25999 1.23795L6.84963 2.61719ZM2.598 7.00529L1.20593 6.4466L2.598 7.00529ZM25.8872 26.2508L25.9885 27.7474H25.9885L25.8872 26.2508ZM9.53674 26.2508L9.43539 27.7474H9.4354L9.53674 26.2508ZM2.1673 19.5676L0.680111 19.7633L2.1673 19.5676ZM33.2566 19.5676L34.7438 19.7633V19.7633L33.2566 19.5676ZM33.2566 8.75678L34.7438 8.56113V8.56113L33.2566 8.75678ZM25.8872 2.07361L25.7859 3.57019L25.8872 2.07361ZM9.53674 2.07361L9.63808 3.57019L9.53674 2.07361ZM2.1673 8.75678L0.680111 8.56113L2.1673 8.75678ZM40.4231 10.9189C40.4231 10.0904 39.7515 9.41885 38.9231 9.41885C38.0947 9.41885 37.4231 10.0904 37.4231 10.9189H40.4231ZM12.2127 30.5C11.3843 30.5 10.7127 31.1716 10.7127 32C10.7127 32.8284 11.3843 33.5 12.2127 33.5V30.5ZM37.7243 25.802L36.3793 25.138L37.7243 25.802ZM32.9179 30.7628L32.2197 29.4352L32.9179 30.7628ZM13.784 3.5H21.64V0.5H13.784V3.5ZM21.64 24.8244H13.784V27.8244H21.64V24.8244ZM7.43927 24.328C5.88916 23.6653 4.64304 22.3874 3.99008 20.7604L1.20593 21.8778C2.14764 24.2243 3.96022 26.1033 6.25999 27.0865L7.43927 24.328ZM31.4339 20.7604C30.7809 22.3874 29.5348 23.6653 27.9847 24.328L29.1639 27.0865C31.4637 26.1033 33.2763 24.2243 34.218 21.8778L31.4339 20.7604ZM27.9847 3.99644C29.5348 4.65913 30.7809 5.93699 31.4339 7.56397L34.218 6.4466C33.2763 4.10014 31.4637 2.22112 29.1639 1.23795L27.9847 3.99644ZM6.25999 1.23795C3.96022 2.22112 2.14764 4.10014 1.20593 6.4466L3.99008 7.56397C4.64304 5.93699 5.88916 4.65913 7.43927 3.99644L6.25999 1.23795ZM21.4493 14.1622C21.4493 16.3641 19.7317 18.0676 17.712 18.0676V21.0676C21.4772 21.0676 24.4493 17.9309 24.4493 14.1622H21.4493ZM17.712 18.0676C15.6922 18.0676 13.9746 16.3641 13.9746 14.1622H10.9746C10.9746 17.9309 13.9467 21.0676 17.712 21.0676V18.0676ZM13.9746 14.1622C13.9746 11.9603 15.6922 10.2568 17.712 10.2568V7.25678C13.9467 7.25678 10.9746 10.3935 10.9746 14.1622H13.9746ZM17.712 10.2568C19.7317 10.2568 21.4493 11.9603 21.4493 14.1622H24.4493C24.4493 10.3935 21.4772 7.25678 17.712 7.25678V10.2568ZM21.64 27.8244C23.4216 27.8244 24.8391 27.8252 25.9885 27.7474L25.7859 24.7542C24.7612 24.8236 23.462 24.8244 21.64 24.8244V27.8244ZM25.9885 27.7474C27.1874 27.6662 28.21 27.4943 29.1639 27.0865L27.9847 24.328C27.4725 24.5469 26.8297 24.6835 25.7859 24.7542L25.9885 27.7474ZM13.784 24.8244C11.962 24.8244 10.6628 24.8236 9.63808 24.7542L9.4354 27.7474C10.5849 27.8252 12.0024 27.8244 13.784 27.8244V24.8244ZM9.63808 24.7542C8.59426 24.6835 7.95139 24.5469 7.43927 24.328L6.25999 27.0865C7.21398 27.4943 8.23652 27.6662 9.43539 27.7474L9.63808 24.7542ZM0.5 14.1622C0.5 16.5882 0.496849 18.3702 0.680111 19.7633L3.65448 19.372C3.50315 18.2216 3.5 16.6779 3.5 14.1622H0.5ZM0.680111 19.7633C0.780396 20.5256 0.94074 21.217 1.20593 21.8778L3.99008 20.7604C3.84148 20.3902 3.7312 19.9551 3.65448 19.372L0.680111 19.7633ZM31.9239 14.1622C31.9239 16.6779 31.9208 18.2216 31.7695 19.372L34.7438 19.7633C34.9271 18.3702 34.9239 16.5882 34.9239 14.1622H31.9239ZM31.7695 19.372C31.6927 19.9551 31.5825 20.3902 31.4339 20.7604L34.218 21.8778C34.4832 21.217 34.6435 20.5256 34.7438 19.7633L31.7695 19.372ZM34.9239 14.1622C34.9239 11.7362 34.9271 9.9542 34.7438 8.56113L31.7695 8.95242C31.9208 10.1028 31.9239 11.6465 31.9239 14.1622H34.9239ZM34.7438 8.56113C34.6435 7.79883 34.4832 7.10737 34.218 6.4466L31.4339 7.56397C31.5825 7.93423 31.6927 8.3693 31.7695 8.95242L34.7438 8.56113ZM21.64 3.5C23.462 3.5 24.7612 3.5008 25.7859 3.57019L25.9885 0.57704C24.8391 0.499202 23.4216 0.5 21.64 0.5V3.5ZM25.7859 3.57019C26.8297 3.64087 27.4725 3.77751 27.9847 3.99644L29.1639 1.23795C28.21 0.830109 27.1874 0.658224 25.9885 0.57704L25.7859 3.57019ZM13.784 0.5C12.0024 0.5 10.5849 0.499202 9.43539 0.57704L9.63808 3.57019C10.6628 3.5008 11.962 3.5 13.784 3.5V0.5ZM9.43539 0.57704C8.23651 0.658224 7.21398 0.830109 6.25999 1.23795L7.43927 3.99644C7.95139 3.77751 8.59426 3.64087 9.63808 3.57019L9.43539 0.57704ZM3.5 14.1622C3.5 11.6465 3.50315 10.1028 3.65448 8.95242L0.680111 8.56113C0.496849 9.9542 0.5 11.7362 0.5 14.1622H3.5ZM3.65448 8.95242C3.7312 8.3693 3.84148 7.93423 3.99008 7.56397L1.20593 6.4466C0.94074 7.10737 0.780396 7.79883 0.680111 8.56113L3.65448 8.95242ZM37.4231 10.9189V13.8378H40.4231V10.9189H37.4231ZM21.3257 30.5H12.2127V33.5H21.3257V30.5ZM37.4231 13.8378C37.4231 17.0405 37.422 19.355 37.2779 21.175C37.1351 22.9787 36.859 24.1664 36.3793 25.138L39.0693 26.466C39.7884 25.0095 40.1117 23.3937 40.2686 21.4117C40.4242 19.4459 40.4231 16.9925 40.4231 13.8378H37.4231ZM21.3257 33.5C24.38 33.5 26.7638 33.5012 28.6754 33.34C30.606 33.1772 32.1889 32.8409 33.616 32.0904L32.2197 29.4352C31.2942 29.9219 30.1607 30.2041 28.4233 30.3507C26.667 30.4988 24.431 30.5 21.3257 30.5V33.5ZM36.3793 25.138C35.4622 26.9957 34.0033 28.4972 32.2197 29.4352L33.616 32.0904C35.9713 30.8518 37.8775 28.8802 39.0693 26.466L36.3793 25.138Z" fill="#2962FF"/>
</svg>
