<svg width="21" height="15" viewBox="0 0 21 15" fill="none" xmlns="http://www.w3.org/2000/svg">
    <defs>
        <linearGradient id="paint0_linear_811_7252" x1="6.75" y1="-2.63431e-08" x2="19.125" y2="16.5" gradientUnits="userSpaceOnUse">
            <stop stop-color="#FF7049"/>
            <stop offset="1" stop-color="#EB910B" stop-opacity="0.8"/>
        </linearGradient>
        <linearGradient id="paint1_linear_811_7252" x1="10.5" y1="3.75" x2="10.5" y2="7.5" gradientUnits="userSpaceOnUse">
            <stop stop-color="#AF1D4F"/>
            <stop offset="1" stop-color="#E73B75" stop-opacity="0.83"/>
        </linearGradient>
        <linearGradient id="paint2_linear_811_7252" x1="14.0625" y1="12.4219" x2="14.0625" y2="10.0781" gradientUnits="userSpaceOnUse">
            <stop stop-color="#AF1D4F"/>
            <stop offset="1" stop-color="#E73B75" stop-opacity="0.83"/>
        </linearGradient>
    </defs>
<path d="M0.256976 2.03806C0.361562 1.21335 1.0085 0.596155 1.92537 0.459397C3.3394 0.248483 5.96719 0 10.5 0C15.0328 0 17.6606 0.248482 19.0746 0.459396C19.9915 0.596154 20.6384 1.21335 20.743 2.03806C20.8703 3.04173 21 4.74128 21 7.5C21 10.2587 20.8703 11.9583 20.743 12.9619C20.6384 13.7867 19.9915 14.4038 19.0746 14.5406C17.6606 14.7515 15.0328 15 10.5 15C5.96719 15 3.33941 14.7515 1.92537 14.5406C1.0085 14.4038 0.361562 13.7867 0.256976 12.9619C0.129694 11.9583 0 10.2587 0 7.5C0 4.74128 0.129694 3.04173 0.256976 2.03806Z" fill="url(#paint0_linear_811_7252)"/>
<path fill-rule="evenodd" clip-rule="evenodd" d="M20.8982 3.75C20.9579 4.70118 21 5.92881 21 7.5H0C0 5.92881 0.0420693 4.70118 0.101802 3.75H20.8982Z" fill="url(#paint1_linear_811_7252)"/>
<path d="M15.9375 11.25C15.9375 11.8545 15.5055 12.3624 14.9019 12.3956C14.622 12.411 14.2854 12.4219 13.892 12.4219C13.6285 12.4219 13.4031 12.417 13.2111 12.4092C12.5897 12.3838 12.1875 11.8719 12.1875 11.25C12.1875 10.6281 12.5897 10.1162 13.2111 10.0908C13.4031 10.083 13.6285 10.0781 13.892 10.0781C14.2854 10.0781 14.622 10.089 14.9019 10.1044C15.5055 10.1376 15.9375 10.6455 15.9375 11.25Z" fill="url(#paint2_linear_811_7252)"/>
</svg>
