<svg width="20" height="20" viewBox="0 0 20 20" fill="none" xmlns="http://www.w3.org/2000/svg">
<path d="M6.84982 2.07325L7.55693 2.78036V2.78036L6.84982 2.07325ZM7.09231 1.83077L6.38522 1.12364L6.3852 1.12366L7.09231 1.83077ZM12.9077 1.83077L12.2006 2.53786L12.2006 2.53788L12.9077 1.83077ZM13.1502 2.07325L12.4431 2.78036V2.78036L13.1502 2.07325ZM10.9563 1.00013L10.9467 2.00008L10.9563 1.00013ZM12.8693 1.79252L12.1689 2.50633L12.1689 2.50634L12.8693 1.79252ZM7.13073 1.79252L6.4304 1.07871L6.43037 1.07874L7.13073 1.79252ZM9.04375 1.00013L9.05327 2.00008L9.04375 1.00013ZM3.26804 18.5473L3.72203 17.6563H3.72203L3.26804 18.5473ZM1.45274 16.732L0.561736 17.186L0.561736 17.186L1.45274 16.732ZM18.5473 16.732L17.6563 16.278V16.278L18.5473 16.732ZM16.732 18.5473L16.278 17.6563H16.278L16.732 18.5473ZM5.15385 6.84615C5.70613 6.84615 6.15385 6.39844 6.15385 5.84615C6.15385 5.29387 5.70613 4.84615 5.15385 4.84615V6.84615ZM4.46154 4.84615C3.90925 4.84615 3.46154 5.29387 3.46154 5.84615C3.46154 6.39844 3.90925 6.84615 4.46154 6.84615V4.84615ZM12.4615 10.6923C12.4615 12.0518 11.3595 13.1538 10 13.1538V15.1538C12.464 15.1538 14.4615 13.1563 14.4615 10.6923H12.4615ZM10 13.1538C8.64053 13.1538 7.53846 12.0518 7.53846 10.6923H5.53846C5.53846 13.1563 7.53596 15.1538 10 15.1538V13.1538ZM7.53846 10.6923C7.53846 9.33284 8.64053 8.23077 10 8.23077V6.23077C7.53596 6.23077 5.53846 8.22827 5.53846 10.6923H7.53846ZM10 8.23077C11.3595 8.23077 12.4615 9.33284 12.4615 10.6923H14.4615C14.4615 8.22827 12.464 6.23077 10 6.23077V8.23077ZM18 6.50367V12.3538H20V6.50367H18ZM12.3538 18H7.64615V20H12.3538V18ZM2 12.3538V6.50367H0V12.3538H2ZM7.55693 2.78036L7.79941 2.53788L6.3852 1.12366L6.14272 1.36615L7.55693 2.78036ZM9.09796 2H10.902V0H9.09796V2ZM12.2006 2.53788L12.4431 2.78036L13.8573 1.36614L13.6148 1.12366L12.2006 2.53788ZM10.902 2C10.9313 2 10.9394 2.00001 10.9467 2.00008L10.9658 0.000171065C10.9467 -1.06096e-05 10.9275 0 10.902 0V2ZM13.6148 1.12368C13.5968 1.10566 13.5832 1.09206 13.5696 1.0787L12.1689 2.50634C12.1742 2.51146 12.1799 2.5172 12.2006 2.53786L13.6148 1.12368ZM10.9467 2.00008C11.4043 2.00444 11.8423 2.18589 12.1689 2.50633L13.5696 1.07871C12.8738 0.396023 11.9405 0.00945908 10.9658 0.000171065L10.9467 2.00008ZM7.79939 2.5379C7.82002 2.51727 7.82587 2.51144 7.8311 2.5063L6.43037 1.07874C6.4168 1.09205 6.40314 1.10573 6.38522 1.12364L7.79939 2.5379ZM9.09796 0C9.07251 0 9.05328 -1.06096e-05 9.03422 0.000171065L9.05327 2.00008C9.06059 2.00001 9.06872 2 9.09796 2V0ZM7.83107 2.50633C8.15768 2.18589 8.59574 2.00444 9.05327 2.00008L9.03422 0.000171065C8.05946 0.00945908 7.12622 0.396023 6.4304 1.07871L7.83107 2.50633ZM15.5733 2.07692C14.9296 2.07692 14.3124 1.82125 13.8573 1.36614L12.4431 2.78036C13.2732 3.61053 14.3992 4.07692 15.5733 4.07692V2.07692ZM4.42675 4.07692C5.6008 4.07692 6.72676 3.61053 7.55693 2.78036L6.14272 1.36615C5.68761 1.82125 5.07036 2.07692 4.42675 2.07692V4.07692ZM7.64615 18C6.46647 18 5.64184 17.9992 4.99935 17.9467C4.36853 17.8952 4.00184 17.7988 3.72203 17.6563L2.81405 19.4383C3.4228 19.7484 4.08198 19.8784 4.83648 19.9401C5.57931 20.0008 6.49947 20 7.64615 20V18ZM0 12.3538C0 13.5005 -0.000777721 14.4207 0.0599139 15.1635C0.121559 15.918 0.251564 16.5772 0.561736 17.186L2.34375 16.278C2.20118 15.9982 2.10481 15.6315 2.05327 15.0007C2.00078 14.3582 2 13.5335 2 12.3538H0ZM3.72203 17.6563C3.1286 17.3539 2.64612 16.8714 2.34375 16.278L0.561736 17.186C1.05585 18.1557 1.84429 18.9441 2.81405 19.4383L3.72203 17.6563ZM18 12.3538C18 13.5335 17.9992 14.3582 17.9467 15.0007C17.8952 15.6315 17.7988 15.9982 17.6563 16.278L19.4383 17.186C19.7484 16.5772 19.8784 15.918 19.9401 15.1635C20.0008 14.4207 20 13.5005 20 12.3538H18ZM12.3538 20C13.5005 20 14.4207 20.0008 15.1635 19.9401C15.918 19.8784 16.5772 19.7484 17.186 19.4383L16.278 17.6563C15.9982 17.7988 15.6315 17.8952 15.0007 17.9467C14.3582 17.9992 13.5335 18 12.3538 18V20ZM17.6563 16.278C17.3539 16.8714 16.8714 17.3539 16.278 17.6563L17.186 19.4383C18.1557 18.9441 18.9441 18.1557 19.4383 17.186L17.6563 16.278ZM20 6.50367C20 4.05885 18.0181 2.07692 15.5733 2.07692V4.07692C16.9135 4.07692 18 5.16342 18 6.50367H20ZM2 6.50367C2 5.16342 3.08649 4.07692 4.42675 4.07692V2.07692C1.98192 2.07692 0 4.05885 0 6.50367H2ZM5.15385 4.84615H4.46154V6.84615H5.15385V4.84615Z" fill="white"/>
</svg>
