<svg width="19" height="20" viewBox="0 0 19 20" fill="none" xmlns="http://www.w3.org/2000/svg">
<path d="M1.22652 0.00919058C1.33085 -0.00780493 1.43773 0.000256418 1.53834 0.0327092C1.63894 0.065162 1.73038 0.121076 1.80512 0.195835L2.66635 1.0584L3.52758 0.195835C3.5895 0.133758 3.66306 0.0845069 3.74404 0.0509023C3.82503 0.0172977 3.91184 0 3.99952 0C4.0872 0 4.17402 0.0172977 4.255 0.0509023C4.33599 0.0845069 4.40955 0.133758 4.47147 0.195835L5.3327 1.0584L6.19393 0.195835C6.25585 0.133758 6.32941 0.0845069 6.41039 0.0509023C6.49137 0.0172977 6.57819 0 6.66587 0C6.75355 0 6.84037 0.0172977 6.92135 0.0509023C7.00234 0.0845069 7.0759 0.133758 7.13782 0.195835L7.99905 1.0584L8.86028 0.195835C8.9222 0.133758 8.99576 0.0845069 9.07674 0.0509023C9.15772 0.0172977 9.24454 0 9.33222 0C9.4199 0 9.50672 0.0172977 9.5877 0.0509023C9.66869 0.0845069 9.74224 0.133758 9.80416 0.195835L10.6654 1.0584L11.5266 0.195835C11.5885 0.133758 11.6621 0.0845069 11.7431 0.0509023C11.8241 0.0172977 11.9109 0 11.9986 0C12.0862 0 12.1731 0.0172977 12.2541 0.0509023C12.335 0.0845069 12.4086 0.133758 12.4705 0.195835L13.3317 1.0584L14.193 0.195835C14.2549 0.133758 14.3285 0.0845069 14.4094 0.0509023C14.4904 0.0172977 14.5772 0 14.6649 0C14.7526 0 14.8394 0.0172977 14.9204 0.0509023C15.0014 0.0845069 15.0749 0.133758 15.1369 0.195835L15.9981 1.0584L16.8593 0.195835C16.934 0.121087 17.0254 0.065167 17.126 0.0326859C17.2265 0.000204879 17.3333 -0.00790608 17.4376 0.00902203C17.5419 0.0259502 17.6407 0.0674323 17.7259 0.130047C17.811 0.192662 17.88 0.274615 17.9272 0.369148L18.5938 1.70232C18.6402 1.79502 18.6644 1.89727 18.6644 2.00095V17.999C18.6644 18.1027 18.6402 18.205 18.5938 18.2977L17.9272 19.6309C17.8799 19.7251 17.811 19.8069 17.7259 19.8693C17.6409 19.9318 17.5423 19.9732 17.4382 19.9901C17.3341 20.007 17.2275 19.999 17.1271 19.9666C17.0267 19.9343 16.9354 19.8786 16.8607 19.8042L15.9981 18.9416L15.1369 19.8042C15.0749 19.8662 15.0014 19.9155 14.9204 19.9491C14.8394 19.9827 14.7526 20 14.6649 20C14.5772 20 14.4904 19.9827 14.4094 19.9491C14.3285 19.9155 14.2549 19.8662 14.193 19.8042L13.3317 18.9416L12.4705 19.8042C12.4086 19.8662 12.335 19.9155 12.2541 19.9491C12.1731 19.9827 12.0862 20 11.9986 20C11.9109 20 11.8241 19.9827 11.7431 19.9491C11.6621 19.9155 11.5885 19.8662 11.5266 19.8042L10.6654 18.9416L9.80416 19.8042C9.74224 19.8662 9.66869 19.9155 9.5877 19.9491C9.50672 19.9827 9.4199 20 9.33222 20C9.24454 20 9.15772 19.9827 9.07674 19.9491C8.99576 19.9155 8.9222 19.8662 8.86028 19.8042L7.99905 18.9416L7.13782 19.8042C7.0759 19.8662 7.00234 19.9155 6.92135 19.9491C6.84037 19.9827 6.75355 20 6.66587 20C6.57819 20 6.49137 19.9827 6.41039 19.9491C6.32941 19.9155 6.25585 19.8662 6.19393 19.8042L5.3327 18.9416L4.47147 19.8042C4.40955 19.8662 4.33599 19.9155 4.255 19.9491C4.17402 19.9827 4.0872 20 3.99952 20C3.91184 20 3.82503 19.9827 3.74404 19.9491C3.66306 19.9155 3.5895 19.8662 3.52758 19.8042L2.66635 18.9416L1.80512 19.8042C1.73043 19.8789 1.63904 19.9348 1.53849 19.9673C1.43794 19.9998 1.3311 20.0079 1.2268 19.991C1.1225 19.9741 1.02371 19.9326 0.938593 19.87C0.853474 19.8073 0.784461 19.7254 0.737245 19.6309L0.0706582 18.2977C0.0242007 18.205 6.94309e-06 18.1027 0 17.999V2.00095C6.94309e-06 1.89727 0.0242007 1.79502 0.0706582 1.70232L0.737245 0.369148C0.784455 0.274681 0.853434 0.192783 0.9385 0.1302C1.02357 0.0676178 1.12228 0.0261423 1.22652 0.00919058ZM1.51582 1.79298L1.33317 2.15827V17.8417L1.51582 18.207L2.19574 17.5271C2.32074 17.4021 2.49026 17.3319 2.66702 17.3319C2.84377 17.3319 3.01329 17.4021 3.13829 17.5271L3.99952 18.3897L4.86075 17.5284C4.92267 17.4664 4.99623 17.4171 5.07722 17.3835C5.1582 17.3499 5.24502 17.3326 5.3327 17.3326C5.42038 17.3326 5.50719 17.3499 5.58818 17.3835C5.66916 17.4171 5.74272 17.4664 5.80464 17.5284L6.66587 18.3897L7.5271 17.5284C7.58902 17.4664 7.66258 17.4171 7.74357 17.3835C7.82455 17.3499 7.91137 17.3326 7.99905 17.3326C8.08673 17.3326 8.17354 17.3499 8.25453 17.3835C8.33551 17.4171 8.40907 17.4664 8.47099 17.5284L9.33222 18.3897L10.1935 17.5284C10.2554 17.4664 10.3289 17.4171 10.4099 17.3835C10.4909 17.3499 10.5777 17.3326 10.6654 17.3326C10.7531 17.3326 10.8399 17.3499 10.9209 17.3835C11.0019 17.4171 11.0754 17.4664 11.1373 17.5284L11.9986 18.3897L12.8598 17.5284C12.9217 17.4664 12.9953 17.4171 13.0763 17.3835C13.1572 17.3499 13.2441 17.3326 13.3317 17.3326C13.4194 17.3326 13.5062 17.3499 13.5872 17.3835C13.6682 17.4171 13.7418 17.4664 13.8037 17.5284L14.6649 18.3897L15.5261 17.5284C15.5881 17.4664 15.6616 17.4171 15.7426 17.3835C15.8236 17.3499 15.9104 17.3326 15.9981 17.3326C16.0858 17.3326 16.1726 17.3499 16.2536 17.3835C16.3346 17.4171 16.4081 17.4664 16.47 17.5284L17.1486 18.207L17.3313 17.8417V2.15827L17.1486 1.79298L16.4687 2.4729C16.3437 2.59786 16.1742 2.66806 15.9974 2.66806C15.8207 2.66806 15.6512 2.59786 15.5261 2.4729L14.6649 1.61033L13.8037 2.4729C13.7418 2.53497 13.6682 2.58423 13.5872 2.61783C13.5062 2.65143 13.4194 2.66873 13.3317 2.66873C13.2441 2.66873 13.1572 2.65143 13.0763 2.61783C12.9953 2.58423 12.9217 2.53497 12.8598 2.4729L11.9986 1.61033L11.1373 2.4729C11.0754 2.53497 11.0019 2.58423 10.9209 2.61783C10.8399 2.65143 10.7531 2.66873 10.6654 2.66873C10.5777 2.66873 10.4909 2.65143 10.4099 2.61783C10.3289 2.58423 10.2554 2.53497 10.1935 2.4729L9.33222 1.61033L8.47099 2.4729C8.40907 2.53497 8.33551 2.58423 8.25453 2.61783C8.17354 2.65143 8.08673 2.66873 7.99905 2.66873C7.91137 2.66873 7.82455 2.65143 7.74357 2.61783C7.66258 2.58423 7.58902 2.53497 7.5271 2.4729L6.66587 1.61033L5.80464 2.4729C5.74272 2.53497 5.66916 2.58423 5.58818 2.61783C5.50719 2.65143 5.42038 2.66873 5.3327 2.66873C5.24502 2.66873 5.1582 2.65143 5.07722 2.61783C4.99623 2.58423 4.92267 2.53497 4.86075 2.4729L3.99952 1.61033L3.13829 2.4729C3.07637 2.53497 3.00281 2.58423 2.92183 2.61783C2.84085 2.65143 2.75403 2.66873 2.66635 2.66873C2.57867 2.66873 2.49185 2.65143 2.41087 2.61783C2.32988 2.58423 2.25633 2.53497 2.19441 2.4729L1.51582 1.79298Z" fill="white"/>
<path d="M2.66635 5.33389C2.66635 5.1571 2.73658 4.98755 2.86159 4.86254C2.9866 4.73753 3.15615 4.6673 3.33294 4.6673H11.332C11.5088 4.6673 11.6783 4.73753 11.8033 4.86254C11.9283 4.98755 11.9986 5.1571 11.9986 5.33389C11.9986 5.51068 11.9283 5.68023 11.8033 5.80524C11.6783 5.93025 11.5088 6.00048 11.332 6.00048H3.33294C3.15615 6.00048 2.9866 5.93025 2.86159 5.80524C2.73658 5.68023 2.66635 5.51068 2.66635 5.33389ZM2.66635 8.00024C2.66635 7.82345 2.73658 7.6539 2.86159 7.52889C2.9866 7.40388 3.15615 7.33365 3.33294 7.33365H11.332C11.5088 7.33365 11.6783 7.40388 11.8033 7.52889C11.9283 7.6539 11.9986 7.82345 11.9986 8.00024C11.9986 8.17703 11.9283 8.34658 11.8033 8.47159C11.6783 8.5966 11.5088 8.66683 11.332 8.66683H3.33294C3.15615 8.66683 2.9866 8.5966 2.86159 8.47159C2.73658 8.34658 2.66635 8.17703 2.66635 8.00024ZM2.66635 10.6666C2.66635 10.4898 2.73658 10.3202 2.86159 10.1952C2.9866 10.0702 3.15615 10 3.33294 10H11.332C11.5088 10 11.6783 10.0702 11.8033 10.1952C11.9283 10.3202 11.9986 10.4898 11.9986 10.6666C11.9986 10.8434 11.9283 11.0129 11.8033 11.1379C11.6783 11.2629 11.5088 11.3332 11.332 11.3332H3.33294C3.15615 11.3332 2.9866 11.2629 2.86159 11.1379C2.73658 11.0129 2.66635 10.8434 2.66635 10.6666ZM2.66635 13.3329C2.66635 13.1561 2.73658 12.9866 2.86159 12.8616C2.9866 12.7366 3.15615 12.6663 3.33294 12.6663H11.332C11.5088 12.6663 11.6783 12.7366 11.8033 12.8616C11.9283 12.9866 11.9986 13.1561 11.9986 13.3329C11.9986 13.5097 11.9283 13.6793 11.8033 13.8043C11.6783 13.9293 11.5088 13.9995 11.332 13.9995H3.33294C3.15615 13.9995 2.9866 13.9293 2.86159 13.8043C2.73658 13.6793 2.66635 13.5097 2.66635 13.3329ZM13.3317 5.33389C13.3317 5.1571 13.402 4.98755 13.527 4.86254C13.652 4.73753 13.8215 4.6673 13.9983 4.6673H15.3315C15.5083 4.6673 15.6778 4.73753 15.8029 4.86254C15.9279 4.98755 15.9981 5.1571 15.9981 5.33389C15.9981 5.51068 15.9279 5.68023 15.8029 5.80524C15.6778 5.93025 15.5083 6.00048 15.3315 6.00048H13.9983C13.8215 6.00048 13.652 5.93025 13.527 5.80524C13.402 5.68023 13.3317 5.51068 13.3317 5.33389ZM13.3317 8.00024C13.3317 7.82345 13.402 7.6539 13.527 7.52889C13.652 7.40388 13.8215 7.33365 13.9983 7.33365H15.3315C15.5083 7.33365 15.6778 7.40388 15.8029 7.52889C15.9279 7.6539 15.9981 7.82345 15.9981 8.00024C15.9981 8.17703 15.9279 8.34658 15.8029 8.47159C15.6778 8.5966 15.5083 8.66683 15.3315 8.66683H13.9983C13.8215 8.66683 13.652 8.5966 13.527 8.47159C13.402 8.34658 13.3317 8.17703 13.3317 8.00024ZM13.3317 10.6666C13.3317 10.4898 13.402 10.3202 13.527 10.1952C13.652 10.0702 13.8215 10 13.9983 10H15.3315C15.5083 10 15.6778 10.0702 15.8029 10.1952C15.9279 10.3202 15.9981 10.4898 15.9981 10.6666C15.9981 10.8434 15.9279 11.0129 15.8029 11.1379C15.6778 11.2629 15.5083 11.3332 15.3315 11.3332H13.9983C13.8215 11.3332 13.652 11.2629 13.527 11.1379C13.402 11.0129 13.3317 10.8434 13.3317 10.6666ZM13.3317 13.3329C13.3317 13.1561 13.402 12.9866 13.527 12.8616C13.652 12.7366 13.8215 12.6663 13.9983 12.6663H15.3315C15.5083 12.6663 15.6778 12.7366 15.8029 12.8616C15.9279 12.9866 15.9981 13.1561 15.9981 13.3329C15.9981 13.5097 15.9279 13.6793 15.8029 13.8043C15.6778 13.9293 15.5083 13.9995 15.3315 13.9995H13.9983C13.8215 13.9995 13.652 13.9293 13.527 13.8043C13.402 13.6793 13.3317 13.5097 13.3317 13.3329Z" fill="white"/>
</svg>
