<svg width="4" height="4" viewBox="0 0 4 4" fill="none" xmlns="http://www.w3.org/2000/svg">
<path fill-rule="evenodd" clip-rule="evenodd" d="M3.52525 0.817519C3.59333 0.817519 3.65 0.874043 3.65 0.945967V1.01247C3.65 1.08264 3.59333 1.14092 3.52525 1.14092H0.624924C0.556676 1.14092 0.5 1.08264 0.5 1.01247V0.945967C0.5 0.874043 0.556676 0.817519 0.624924 0.817519H1.13517C1.23882 0.817519 1.32903 0.743845 1.35235 0.639896L1.37907 0.520547C1.42059 0.357974 1.55726 0.25 1.71367 0.25H2.43633C2.59104 0.25 2.72924 0.357974 2.76923 0.511972L2.79783 0.639721C2.82097 0.743845 2.91118 0.817519 3.015 0.817519H3.52525ZM3.266 3.24844C3.31927 2.75197 3.41254 1.57248 3.41254 1.56058C3.41594 1.52453 3.4042 1.49041 3.38088 1.46293C3.35586 1.43721 3.32421 1.42198 3.28932 1.42198H0.861971C0.826911 1.42198 0.793552 1.43721 0.770406 1.46293C0.746918 1.49041 0.735345 1.52453 0.737047 1.56058C0.73736 1.56277 0.740706 1.60431 0.746301 1.67377C0.771157 1.98234 0.840384 2.84176 0.885118 3.24844C0.916775 3.54804 1.11335 3.73633 1.39809 3.74316C1.61781 3.74823 1.84418 3.74998 2.07564 3.74998C2.29367 3.74998 2.51509 3.74823 2.74162 3.74316C3.03623 3.73808 3.23264 3.55311 3.266 3.24844Z" fill="#FF1744"/>
</svg>
