<svg width="23" height="22" viewBox="0 0 23 22" fill="none" xmlns="http://www.w3.org/2000/svg">
<path d="M7.52607 2.43228L7.39455 3.4236L7.52607 2.43228ZM9.7501 1.72788L10.4324 2.459L9.7501 1.72788ZM4.51479 4.56493L3.53156 4.38254H3.53156L4.51479 4.56493ZM3.14026 6.40908L3.60423 7.29493L3.14026 6.40908ZM1.99005 9.85976L2.88632 9.41625H2.88632L1.99005 9.85976ZM1.99005 12.1393L2.88632 12.5828H2.88632L1.99005 12.1393ZM3.14026 15.5899L3.60423 14.7041H3.60423L3.14026 15.5899ZM4.51479 17.4341L3.53156 17.6165L4.51479 17.4341ZM7.52607 19.5667L7.65759 20.5581H7.65759L7.52607 19.5667ZM9.7501 20.2711L10.4324 19.54L9.7501 20.2711ZM13.4723 20.2711L12.79 19.54H12.79L13.4723 20.2711ZM15.6963 19.5667L15.5648 20.5581L15.6963 19.5667ZM18.7076 17.4341L17.7243 17.2517V17.2517L18.7076 17.4341ZM20.0821 15.5899L19.6181 14.7041L20.0821 15.5899ZM21.2323 12.1393L20.336 12.5828L21.2323 12.1393ZM21.2323 9.85976L20.336 9.41625L21.2323 9.85976ZM20.0821 6.40908L20.5461 5.52322L20.0821 6.40908ZM18.7076 4.56493L17.7243 4.74731V4.74731L18.7076 4.56493ZM15.6963 2.43228L15.5648 1.44097L15.6963 2.43228ZM13.4723 1.72788L14.1545 0.996765V0.996765L13.4723 1.72788ZM16.4073 7.53599L17.1105 6.82494L15.6884 5.41865L14.9852 6.1297L16.4073 7.53599ZM6.77976 14.4274L6.07662 15.1384L7.49871 16.5447L8.20186 15.8337L6.77976 14.4274ZM7.39455 3.4236C8.49978 3.57023 9.61823 3.21872 10.4324 2.459L9.06785 0.996766C8.697 1.34284 8.17782 1.50999 7.65759 1.44097L7.39455 3.4236ZM5.49801 4.74731C5.65344 3.90939 6.47351 3.3014 7.39455 3.4236L7.65759 1.44097C5.72351 1.18437 3.88883 2.45652 3.53156 4.38254L5.49801 4.74731ZM3.60423 7.29493C4.59249 6.77733 5.29485 5.84257 5.49801 4.74731L3.53156 4.38254C3.44284 4.86083 3.13309 5.28398 2.67629 5.52322L3.60423 7.29493ZM2.88632 9.41625C2.50741 8.65053 2.80426 7.71391 3.60423 7.29493L2.67629 5.52322C0.938009 6.43365 0.220833 8.53917 1.09378 10.3033L2.88632 9.41625ZM2.88632 12.5828C3.38098 11.5831 3.38098 10.4159 2.88632 9.41625L1.09378 10.3033C1.31183 10.7439 1.31183 11.2551 1.09378 11.6958L2.88632 12.5828ZM3.60423 14.7041C2.80426 14.2851 2.50741 13.3485 2.88632 12.5828L1.09378 11.6958C0.220833 13.4599 0.938009 15.5654 2.67629 16.4758L3.60423 14.7041ZM5.49801 17.2517C5.29485 16.1565 4.59249 15.2217 3.60423 14.7041L2.67629 16.4758C3.13309 16.715 3.44284 17.1382 3.53156 17.6165L5.49801 17.2517ZM7.39455 18.5754C6.47351 18.6976 5.65344 18.0896 5.49801 17.2517L3.53156 17.6165C3.88883 19.5425 5.72351 20.8147 7.65759 20.5581L7.39455 18.5754ZM10.4324 19.54C9.61823 18.7803 8.49979 18.4288 7.39455 18.5754L7.65759 20.5581C8.17782 20.489 8.69699 20.6562 9.06785 21.0023L10.4324 19.54ZM12.79 19.54C12.1335 20.1527 11.0889 20.1527 10.4324 19.54L9.06785 21.0023C10.4928 22.3319 12.7296 22.3319 14.1545 21.0023L12.79 19.54ZM15.8278 18.5754C14.7226 18.4288 13.6041 18.7803 12.79 19.54L14.1545 21.0023C14.5254 20.6562 15.0445 20.489 15.5648 20.5581L15.8278 18.5754ZM17.7243 17.2517C17.5689 18.0896 16.7488 18.6976 15.8278 18.5754L15.5648 20.5581C17.4988 20.8147 19.3335 19.5425 19.6908 17.6165L17.7243 17.2517ZM19.6181 14.7041C18.6299 15.2217 17.9275 16.1565 17.7243 17.2517L19.6908 17.6165C19.7795 17.1382 20.0893 16.715 20.5461 16.4758L19.6181 14.7041ZM20.336 12.5828C20.715 13.3485 20.4181 14.2851 19.6181 14.7041L20.5461 16.4758C22.2844 15.5654 23.0015 13.4599 22.1286 11.6958L20.336 12.5828ZM20.336 9.41625C19.8414 10.4159 19.8414 11.5831 20.336 12.5828L22.1286 11.6958C21.9105 11.2551 21.9105 10.7439 22.1286 10.3033L20.336 9.41625ZM19.6181 7.29493C20.4181 7.71392 20.715 8.65053 20.336 9.41625L22.1286 10.3033C23.0015 8.53916 22.2844 6.43365 20.5461 5.52322L19.6181 7.29493ZM17.7243 4.74731C17.9275 5.84257 18.6299 6.77733 19.6181 7.29493L20.5461 5.52322C20.0893 5.28398 19.7795 4.86083 19.6908 4.38254L17.7243 4.74731ZM15.8278 3.4236C16.7488 3.3014 17.5689 3.90939 17.7243 4.74731L19.6908 4.38254C19.3335 2.45652 17.4988 1.18437 15.5648 1.44097L15.8278 3.4236ZM12.79 2.459C13.6041 3.21872 14.7226 3.57023 15.8278 3.4236L15.5648 1.44097C15.0445 1.50999 14.5254 1.34283 14.1545 0.996765L12.79 2.459ZM14.1545 0.996765C12.7296 -0.332906 10.4928 -0.332906 9.06785 0.996766L10.4324 2.459C11.0889 1.84635 12.1335 1.84635 12.79 2.459L14.1545 0.996765ZM14.9852 6.1297L6.77976 14.4274L8.20186 15.8337L16.4073 7.53599L14.9852 6.1297ZM14.7316 14.3328C14.7316 14.2514 14.7998 14.1662 14.9075 14.1662V16.1662C15.9254 16.1662 16.7316 15.3348 16.7316 14.3328H14.7316ZM14.9075 14.1662C15.0151 14.1662 15.0834 14.2514 15.0834 14.3328H13.0834C13.0834 15.3348 13.8896 16.1662 14.9075 16.1662V14.1662ZM15.0834 14.3328C15.0834 14.4143 15.0151 14.4995 14.9075 14.4995V12.4995C13.8896 12.4995 13.0834 13.3309 13.0834 14.3328H15.0834ZM14.9075 14.4995C14.7998 14.4995 14.7316 14.4143 14.7316 14.3328H16.7316C16.7316 13.3309 15.9254 12.4995 14.9075 12.4995V14.4995ZM8.13896 7.66618C8.13896 7.58469 8.20722 7.49951 8.31488 7.49951V9.49951C9.3328 9.49951 10.139 8.66814 10.139 7.66618H8.13896ZM8.31488 7.49951C8.42255 7.49951 8.49081 7.58469 8.49081 7.66618H6.49081C6.49081 8.66814 7.29697 9.49951 8.31488 9.49951V7.49951ZM8.49081 7.66618C8.49081 7.74766 8.42255 7.83285 8.31488 7.83285V5.83285C7.29697 5.83285 6.49081 6.66422 6.49081 7.66618H8.49081ZM8.31488 7.83285C8.20722 7.83285 8.13896 7.74766 8.13896 7.66618H10.139C10.139 6.66422 9.3328 5.83285 8.31488 5.83285V7.83285Z" fill="white"/>
</svg>
