<svg width="17" height="16" viewBox="0 0 17 16" fill="none" xmlns="http://www.w3.org/2000/svg">
<path fill-rule="evenodd" clip-rule="evenodd" d="M6.45908 7.44853C6.10117 7.44853 5.81817 7.6919 5.81817 7.99969C5.81817 8.30032 6.10117 8.55085 6.45908 8.55085H11.4532V11.9723C11.4532 13.726 9.79683 15.1576 7.74923 15.1576H3.69566C1.65639 15.1576 0 13.7332 0 11.9795V4.02706C0 2.26622 1.66471 0.841797 3.70398 0.841797H7.76588C9.79683 0.841797 11.4532 2.26622 11.4532 4.0199V7.44853H6.45908ZM14.423 5.52322L16.8118 7.60616C16.9345 7.71353 17 7.84953 17 7.99984C17 8.143 16.9345 8.28616 16.8118 8.38637L14.423 10.4693C14.3003 10.5767 14.1367 10.6339 13.9813 10.6339C13.8176 10.6339 13.654 10.5767 13.5313 10.4693C13.2859 10.2546 13.2859 9.90384 13.5313 9.6891L14.8402 8.551H11.4534V7.44869H14.8402L13.5313 6.31058C13.2859 6.09585 13.2859 5.74511 13.5313 5.53038C13.7767 5.30848 14.1776 5.30848 14.423 5.52322Z" fill="white"/>
</svg>
