<svg width="27" height="6" viewBox="0 0 27 6" fill="none" xmlns="http://www.w3.org/2000/svg">
<path d="M6.57786 2.99951C6.57786 4.65637 5.24964 5.99951 3.6112 5.99951C1.97275 5.99951 0.644531 4.65637 0.644531 2.99951C0.644531 1.34266 1.97275 -0.000488281 3.6112 -0.000488281C5.24964 -0.000488281 6.57786 1.34266 6.57786 2.99951Z" fill="white"/>
<path d="M16.4668 2.99951C16.4668 4.65637 15.1385 5.99951 13.5001 5.99951C11.8616 5.99951 10.5334 4.65637 10.5334 2.99951C10.5334 1.34266 11.8616 -0.000488281 13.5001 -0.000488281C15.1385 -0.000488281 16.4668 1.34266 16.4668 2.99951Z" fill="white"/>
<path d="M26.3556 2.99951C26.3556 4.65637 25.0274 5.99951 23.389 5.99951C21.7505 5.99951 20.4223 4.65637 20.4223 2.99951C20.4223 1.34266 21.7505 -0.000488281 23.389 -0.000488281C25.0274 -0.000488281 26.3556 1.34266 26.3556 2.99951Z" fill="white"/>
</svg>
