<svg width="21" height="20" viewBox="0 0 21 20" fill="none" xmlns="http://www.w3.org/2000/svg">
<path fill-rule="evenodd" clip-rule="evenodd" d="M5.78893 3.99951V1.99951L15.6556 1.99951V3.99951L5.78893 3.99951ZM3.78893 3.99951L3.78893 1.99951C3.78893 0.905506 4.66888 -0.000488281 5.77782 -0.000488281H15.6667C16.7756 -0.000488281 17.6556 0.905506 17.6556 1.99951V3.99951L18.6334 3.99951C19.7423 3.99951 20.6223 4.9055 20.6223 5.99951V13.9995C20.6223 15.0935 19.7423 15.9995 18.6334 15.9995H17.6556V17.9995C17.6556 19.0935 16.7756 19.9995 15.6667 19.9995L5.77782 19.9995C4.66888 19.9995 3.78893 19.0935 3.78893 17.9995L3.78893 15.9995H2.81116C1.70222 15.9995 0.822266 15.0935 0.822266 13.9995V5.99951C0.822266 4.90551 1.70222 3.99951 2.81115 3.99951L3.78893 3.99951ZM15.6684 5.99951C15.6678 5.99951 15.6673 5.99951 15.6667 5.99951L5.77782 5.99951C5.77724 5.99951 5.77666 5.99951 5.77608 5.99951L2.82227 5.99951L2.82227 13.9995L3.78893 13.9995C3.78893 12.9055 4.66888 11.9995 5.77782 11.9995L15.6667 11.9995C16.7756 11.9995 17.6556 12.9055 17.6556 13.9995L18.6223 13.9995V5.99951L15.6684 5.99951ZM5.78893 14.9987L5.78893 14.9995L5.78893 15.0004L5.78893 17.9995L15.6556 17.9995V13.9995L5.78893 13.9995V14.9987ZM7.74449 8.99951C7.74449 8.44723 8.1922 7.99951 8.74449 7.99951H12.7C13.2523 7.99951 13.7 8.44723 13.7 8.99951C13.7 9.5518 13.2523 9.99951 12.7 9.99951H8.74449C8.1922 9.99951 7.74449 9.5518 7.74449 8.99951Z" fill="white"/>
</svg>
