<svg width="24" height="24" viewBox="0 0 24 24" fill="none" xmlns="http://www.w3.org/2000/svg">
<path d="M12 15.4833C14.6579 15.4833 16.8125 13.2671 16.8125 10.5333C16.8125 7.79952 14.6579 5.58333 12 5.58333C9.34213 5.58333 7.1875 7.79952 7.1875 10.5333C7.1875 13.2671 9.34213 15.4833 12 15.4833ZM12 15.4833C5.58333 15.4833 5.52699 18.7967 5.52699 22.4418M12 15.4833C18.4167 15.6268 18.473 18.7967 18.473 22.4418M18.473 22.4418C17.1254 23 15.4169 23 12 23C8.5831 23 6.87464 23 5.52699 22.4418M18.473 22.4418C20.2699 21.6975 21.6975 20.2699 22.4418 18.473C23 17.1254 23 15.4169 23 12C23 8.5831 23 6.87464 22.4418 5.52699C21.6975 3.73012 20.2699 2.30251 18.473 1.55822C17.1254 1 15.4169 1 12 1C8.5831 1 6.87464 1 5.52699 1.55822C3.73012 2.30251 2.30251 3.73012 1.55822 5.52699C1 6.87464 1 8.5831 1 12C1 15.4169 1 17.1254 1.55822 18.473C2.30251 20.2699 3.73012 21.6975 5.52699 22.4418" stroke="white" stroke-linecap="round"/>
</svg>
