<svg width="23" height="20" viewBox="0 0 23 20" fill="none" xmlns="http://www.w3.org/2000/svg">
<path d="M3.57143 10C3.76087 10 3.94255 9.92475 4.0765 9.79079C4.21046 9.65684 4.28571 9.47515 4.28571 9.28571C4.28571 9.09627 4.21046 8.91459 4.0765 8.78064C3.94255 8.64668 3.76087 8.57143 3.57143 8.57143C3.38199 8.57143 3.20031 8.64668 3.06635 8.78064C2.9324 8.91459 2.85714 9.09627 2.85714 9.28571C2.85714 9.47515 2.9324 9.65684 3.06635 9.79079C3.20031 9.92475 3.38199 10 3.57143 10Z" fill="white"/>
<path d="M7.14286 0C6.3851 0 5.65837 0.30102 5.12255 0.836838C4.58673 1.37266 4.28571 2.09938 4.28571 2.85714V5.71429H2.85714C2.09938 5.71429 1.37266 6.01531 0.836838 6.55112C0.30102 7.08694 0 7.81367 0 8.57143V12.8571C0 13.6149 0.30102 14.3416 0.836838 14.8774C1.37266 15.4133 2.09938 15.7143 2.85714 15.7143H4.28571V17.1429C4.28571 17.9006 4.58673 18.6273 5.12255 19.1632C5.65837 19.699 6.3851 20 7.14286 20H15.7143C16.472 20 17.1988 19.699 17.7346 19.1632C18.2704 18.6273 18.5714 17.9006 18.5714 17.1429V15.7143H20C20.7578 15.7143 21.4845 15.4133 22.0203 14.8774C22.5561 14.3416 22.8571 13.6149 22.8571 12.8571V8.57143C22.8571 7.81367 22.5561 7.08694 22.0203 6.55112C21.4845 6.01531 20.7578 5.71429 20 5.71429H18.5714V2.85714C18.5714 2.09938 18.2704 1.37266 17.7346 0.836838C17.1988 0.30102 16.472 0 15.7143 0H7.14286ZM5.71429 2.85714C5.71429 2.47826 5.8648 2.1149 6.13271 1.84699C6.40061 1.57908 6.76398 1.42857 7.14286 1.42857H15.7143C16.0932 1.42857 16.4565 1.57908 16.7244 1.84699C16.9923 2.1149 17.1429 2.47826 17.1429 2.85714V5.71429H5.71429V2.85714ZM7.14286 10C6.3851 10 5.65837 10.301 5.12255 10.8368C4.58673 11.3727 4.28571 12.0994 4.28571 12.8571V14.2857H2.85714C2.47826 14.2857 2.1149 14.1352 1.84699 13.8673C1.57908 13.5994 1.42857 13.236 1.42857 12.8571V8.57143C1.42857 8.19255 1.57908 7.82919 1.84699 7.56128C2.1149 7.29337 2.47826 7.14286 2.85714 7.14286H20C20.3789 7.14286 20.7422 7.29337 21.0102 7.56128C21.2781 7.82919 21.4286 8.19255 21.4286 8.57143V12.8571C21.4286 13.236 21.2781 13.5994 21.0102 13.8673C20.7422 14.1352 20.3789 14.2857 20 14.2857H18.5714V12.8571C18.5714 12.0994 18.2704 11.3727 17.7346 10.8368C17.1988 10.301 16.472 10 15.7143 10H7.14286ZM17.1429 12.8571V17.1429C17.1429 17.5217 16.9923 17.8851 16.7244 18.153C16.4565 18.4209 16.0932 18.5714 15.7143 18.5714H7.14286C6.76398 18.5714 6.40061 18.4209 6.13271 18.153C5.8648 17.8851 5.71429 17.5217 5.71429 17.1429V12.8571C5.71429 12.4783 5.8648 12.1149 6.13271 11.847C6.40061 11.5791 6.76398 11.4286 7.14286 11.4286H15.7143C16.0932 11.4286 16.4565 11.5791 16.7244 11.847C16.9923 12.1149 17.1429 12.4783 17.1429 12.8571Z" fill="white"/>
</svg>
