<svg width="23" height="20" viewBox="0 0 23 20" fill="none" xmlns="http://www.w3.org/2000/svg">
<path d="M15.7143 1.42857C15.7143 1.04969 15.8648 0.686328 16.1327 0.418419C16.4006 0.15051 16.764 0 17.1429 0H20C20.3789 0 20.7422 0.15051 21.0102 0.418419C21.2781 0.686328 21.4286 1.04969 21.4286 1.42857V18.5714H22.1429C22.3323 18.5714 22.514 18.6467 22.6479 18.7806C22.7819 18.9146 22.8571 19.0963 22.8571 19.2857C22.8571 19.4752 22.7819 19.6568 22.6479 19.7908C22.514 19.9247 22.3323 20 22.1429 20H0.714286C0.524845 20 0.343164 19.9247 0.209209 19.7908C0.0752549 19.6568 0 19.4752 0 19.2857C0 19.0963 0.0752549 18.9146 0.209209 18.7806C0.343164 18.6467 0.524845 18.5714 0.714286 18.5714H1.42857V14.2857C1.42857 13.9068 1.57908 13.5435 1.84699 13.2756C2.1149 13.0077 2.47826 12.8571 2.85714 12.8571H5.71429C6.09317 12.8571 6.45653 13.0077 6.72444 13.2756C6.99235 13.5435 7.14286 13.9068 7.14286 14.2857V18.5714H8.57143V8.57143C8.57143 8.19255 8.72194 7.82919 8.98985 7.56128C9.25776 7.29337 9.62112 7.14286 10 7.14286H12.8571C13.236 7.14286 13.5994 7.29337 13.8673 7.56128C14.1352 7.82919 14.2857 8.19255 14.2857 8.57143V18.5714H15.7143V1.42857ZM17.1429 18.5714H20V1.42857H17.1429V18.5714ZM12.8571 18.5714V8.57143H10V18.5714H12.8571ZM5.71429 18.5714V14.2857H2.85714V18.5714H5.71429Z" fill="white"/>
</svg>
