<svg width="24" height="24" viewBox="0 0 24 24" fill="none" xmlns="http://www.w3.org/2000/svg">
<path fill-rule="evenodd" clip-rule="evenodd" d="M20.0707 9.58286L23.0194 10.0291C23.2 10.0564 23.3335 10.2119 23.3333 10.3944V13.6053C23.3333 13.788 23.1998 13.9433 23.0192 13.9706L20.0559 14.419C19.8923 14.9596 19.6738 15.4831 19.4037 15.9812L21.1853 18.3977C21.294 18.5448 21.2785 18.7494 21.1494 18.8784L18.8788 21.1488C18.7494 21.2779 18.5452 21.2935 18.398 21.185L15.9736 19.3978C15.4778 19.664 14.9575 19.8792 14.4214 20.0401L13.9707 23.0188C13.9434 23.1996 13.7883 23.3332 13.6054 23.3332H10.3945C10.2117 23.3332 10.0565 23.1996 10.0292 23.0188L9.57852 20.0401C9.04236 19.8792 8.52206 19.664 8.02634 19.3978L5.60188 21.185C5.45479 21.2935 5.25029 21.2781 5.12119 21.1488L2.8508 18.8784C2.7217 18.749 2.70616 18.5448 2.81458 18.3977L4.59616 15.9812C4.32639 15.4831 4.10787 14.9596 3.94399 14.419L0.980735 13.9706C0.800193 13.9433 0.666626 13.788 0.666626 13.6053V10.3944C0.666626 10.2116 0.800193 10.0564 0.980987 10.0291L3.92971 9.58286C4.09183 9.0364 4.31086 8.50571 4.5829 7.99993L2.81483 5.60194C2.70642 5.45486 2.72195 5.25036 2.85105 5.12126L5.12144 2.85087C5.25079 2.72152 5.45504 2.70624 5.60213 2.81464L7.99256 4.57674C8.50062 4.30105 9.03476 4.07857 9.58569 3.91374L10.0294 0.980865C10.0568 0.800071 10.212 0.666504 10.3948 0.666504H13.6057C13.7885 0.666504 13.9436 0.800071 13.971 0.980865L14.4148 3.91374C14.9657 4.07857 15.4998 4.30079 16.0078 4.57674L18.3982 2.81464C18.5454 2.70624 18.7496 2.72176 18.879 2.85087L21.1497 5.12126C21.2788 5.25061 21.294 5.45486 21.1856 5.60194L19.4175 7.99993C19.6895 8.50571 19.9086 9.0364 20.0707 9.58286ZM19.7111 13.7237L22.5944 13.2874V10.7123L19.724 10.2782C19.5785 10.256 19.4597 10.1498 19.422 10.0074C19.2512 9.36289 18.9943 8.74002 18.6584 8.15614C18.5852 8.02899 18.5944 7.87058 18.6814 7.75254L20.4016 5.41914L18.5806 3.59813L16.254 5.31318C16.1353 5.40041 15.9763 5.40952 15.849 5.33513C15.2635 4.99511 14.6377 4.73471 13.9888 4.56096C13.8468 4.52303 13.741 4.40456 13.719 4.25917L13.2873 1.4054H10.7121L10.2804 4.25917C10.2586 4.40456 10.1526 4.52303 10.0107 4.56096C9.36169 4.73471 8.73562 4.99511 8.15047 5.33513C8.02288 5.40927 7.86397 5.40041 7.74544 5.31318L5.41883 3.59813L3.59781 5.41914L5.31808 7.75254C5.40505 7.87058 5.41417 8.02899 5.34098 8.15614C5.00491 8.74002 4.74822 9.36289 4.57743 10.0074C4.53976 10.1498 4.42097 10.2562 4.27539 10.2782L1.40502 10.7123V13.2874L4.28847 13.7237C4.43329 13.7457 4.55158 13.8509 4.59 13.9922C4.76344 14.6316 5.0207 15.2479 5.35456 15.8234C5.42845 15.9507 5.41958 16.1097 5.33235 16.2281L3.59781 18.5808L5.41883 20.4018L7.77869 18.6621C7.89674 18.5753 8.05514 18.5663 8.18204 18.6392C8.75637 18.9691 9.36911 19.2229 10.004 19.3931C10.1457 19.4313 10.2516 19.5498 10.2736 19.695L10.7121 22.5945H13.2873L13.7259 19.695C13.7478 19.5496 13.8538 19.4313 13.9955 19.3931C14.6303 19.2229 15.2431 18.9691 15.8173 18.6392C15.9443 18.566 16.1025 18.5751 16.2207 18.6621L18.5806 20.4018L20.4016 18.5808L18.6671 16.2281C18.5796 16.1097 18.5709 15.9507 18.6449 15.8234C18.9787 15.2476 19.236 14.6316 19.4094 13.9922C19.4478 13.8511 19.5661 13.7457 19.7111 13.7237ZM7.31869 11.8766C7.31869 9.36339 9.36339 7.3187 11.8767 7.3187C14.3901 7.3187 16.4348 9.36339 16.4348 11.8766C16.4348 14.3899 14.3901 16.4346 11.8767 16.4346C9.36339 16.4346 7.31869 14.3899 7.31869 11.8766ZM8.05784 11.8766C8.05784 13.9824 9.77095 15.6954 11.8767 15.6954C13.9826 15.6954 15.6957 13.9824 15.6957 11.8766C15.6957 9.77089 13.9826 8.05785 11.8767 8.05785C9.77095 8.05785 8.05784 9.77089 8.05784 11.8766Z" fill="white"/>
</svg>
