<svg width="8" height="8" viewBox="0 0 8 8" fill="none" xmlns="http://www.w3.org/2000/svg">
<path fill-rule="evenodd" clip-rule="evenodd" d="M5.36779 0.0241354C5.01402 -2.00134e-06 4.57524 -1.1215e-06 4.01155 1.55723e-08H3.98845C3.42476 -1.1215e-06 2.98598 -2.00134e-06 2.63221 0.0241354C2.27327 0.048626 1.97941 0.0989905 1.70949 0.210795C1.03095 0.491855 0.491855 1.03095 0.210795 1.70949C0.0989905 1.97941 0.048626 2.27327 0.0241354 2.63221C-2.00134e-06 2.98598 -1.1215e-06 3.42476 1.55723e-08 3.98845V4.01155C-1.1215e-06 4.57524 -2.00134e-06 5.01402 0.0241354 5.36779C0.048626 5.72673 0.0989905 6.02059 0.210795 6.29051C0.491855 6.96905 1.03095 7.50814 1.70949 7.78921C1.97941 7.90101 2.27327 7.95137 2.63221 7.97586C2.98598 8 3.42475 8 3.98845 8H4.01155C4.57525 8 5.01402 8 5.36779 7.97586C5.72673 7.95137 6.02059 7.90101 6.29051 7.78921C6.96905 7.50814 7.50814 6.96905 7.78921 6.29051C7.90101 6.02059 7.95137 5.72673 7.97586 5.36779C8 5.01402 8 4.57525 8 4.01155V3.98845C8 3.42475 8 2.98598 7.97586 2.63221C7.95137 2.27327 7.90101 1.97941 7.78921 1.70949C7.50814 1.03095 6.96905 0.491855 6.29051 0.210795C6.02059 0.0989905 5.72673 0.048626 5.36779 0.0241354ZM4 1.44379C4.16993 1.44379 4.30769 1.58155 4.30769 1.75148V3.72699C4.30769 3.80608 4.34364 3.88088 4.40541 3.93029L5.61233 4.89583C5.74503 5.00199 5.76654 5.19562 5.66039 5.32831C5.55423 5.46101 5.3606 5.48252 5.2279 5.37637L4.02098 4.41082C3.81324 4.24463 3.69231 3.99302 3.69231 3.72699V1.75148C3.69231 1.58155 3.83007 1.44379 4 1.44379Z" fill="black"/>
</svg>
