<svg width="27" height="20" viewBox="0 0 27 20" fill="none" xmlns="http://www.w3.org/2000/svg">
<path d="M10.5082 12.3779C9.79591 12.2292 9.06862 12.1582 8.33915 12.1666L8.33333 12.1667V12.1667C5.14134 12.1667 3.19834 13.3563 2.04629 14.7004C0.873789 16.0683 0.5 17.6196 0.5 18.3333C0.5 18.6625 0.580857 18.8761 0.676442 19.0195C0.774113 19.166 0.907922 19.2699 1.05694 19.3445C1.20792 19.4199 1.36495 19.4602 1.48845 19.4808C1.54902 19.4909 1.5984 19.4957 1.63068 19.498C1.64673 19.4992 1.6583 19.4997 1.66461 19.4999L1.66943 19.5M10.5082 12.3779L8.14701 20C8.0803 19.8367 8.02398 19.6697 7.97827 19.5M10.5082 12.3779C8.77702 14.0277 7.83463 16.1943 7.83333 18.3289M10.5082 12.3779L7.83333 18.3289M1.66943 19.5L1.66833 19.5L1.66945 19.5M1.66943 19.5C1.66997 19.5 1.67014 19.5 1.66995 19.5L1.66945 19.5M1.66943 19.5L1.66945 19.5M1.66945 19.5H7.97827M7.97827 19.5C7.8758 19.1195 7.82667 18.7254 7.83333 18.3289" stroke="white"/>
</svg>
